<svg width="49" height="49" viewBox="0 0 49 49" fill="none" xmlns="http://www.w3.org/2000/svg">
<path d="M42.2168 38.9336V35.6417C42.2168 34.0061 41.221 32.5353 39.7024 31.9278L35.6341 30.3005C33.7025 29.5279 31.5012 30.3648 30.5708 32.2256L30.2168 32.9336C30.2168 32.9336 25.2168 31.9336 21.2168 27.9336C17.2168 23.9336 16.2168 18.9336 16.2168 18.9336L16.9248 18.5796C18.7856 17.6492 19.6225 15.4479 18.8499 13.5163L17.2226 9.44803C16.6151 7.9294 15.1443 6.93359 13.5087 6.93359H10.2168C8.00766 6.93359 6.2168 8.72445 6.2168 10.9336C6.2168 28.6067 20.5437 42.9336 38.2168 42.9336C40.4259 42.9336 42.2168 41.1427 42.2168 38.9336Z" stroke="#141718" stroke-width="2.5" stroke-linejoin="round"/>
</svg>
