<svg width="44" height="40" viewBox="0 0 44 40" fill="none" xmlns="http://www.w3.org/2000/svg">
<path d="M26.2168 33.9336V9.93359M26.2168 33.9336H30.2168M26.2168 33.9336H16.2168M26.2168 9.93359C26.2168 5.51532 22.6351 1.93359 18.2168 1.93359H10.2168C5.79852 1.93359 2.2168 5.51532 2.2168 9.93359V25.9336C2.2168 29.664 4.77013 32.7981 8.22449 33.6835M26.2168 9.93359H32.635C33.6512 9.93359 34.6294 10.3204 35.3708 11.0154L40.9526 16.2484C41.7592 17.0046 42.2168 18.0609 42.2168 19.1665V29.9336C42.2168 32.1427 40.4259 33.9336 38.2168 33.9336M38.2168 33.9336C38.2168 36.1427 36.4259 37.9336 34.2168 37.9336C32.0077 37.9336 30.2168 36.1427 30.2168 33.9336M38.2168 33.9336C38.2168 31.7245 36.4259 29.9336 34.2168 29.9336C32.0077 29.9336 30.2168 31.7245 30.2168 33.9336M16.2168 33.9336C16.2168 36.1427 14.4259 37.9336 12.2168 37.9336C10.0077 37.9336 8.2168 36.1427 8.2168 33.9336C8.2168 33.8496 8.21938 33.7662 8.22449 33.6835M16.2168 33.9336C16.2168 31.7245 14.4259 29.9336 12.2168 29.9336C10.0916 29.9336 8.35356 31.5909 8.22449 33.6835" stroke="#141718" stroke-width="2.5"/>
</svg>
